<?xml version="1.0" encoding="utf-8"?>
<!-- Generator: Adobe Illustrator 20.1.0, SVG Export Plug-In . SVG Version: 6.00 Build 0)  -->
<!DOCTYPE svg PUBLIC "-//W3C//DTD SVG 1.1//EN" "http://www.w3.org/Graphics/SVG/1.1/DTD/svg11.dtd">
<svg version="1.1" id="Layer_1" xmlns="http://www.w3.org/2000/svg" xmlns:xlink="http://www.w3.org/1999/xlink" x="0px" y="0px"
	 viewBox="0 0 135 135" style="enable-background:new 0 0 135 135;" xml:space="preserve">
<style type="text/css">
	.st0{fill:#FFFFFF;}
</style>
<g>
	<rect x="36" y="63" class="st0" width="9" height="9"/>
	<rect x="45" y="72" class="st0" width="9" height="9"/>
	<rect x="54" y="81" class="st0" width="9" height="9"/>
	<rect x="63" y="90" class="st0" width="9" height="9"/>
	<rect x="72" y="81" class="st0" width="9" height="9"/>
	<rect x="81" y="72" class="st0" width="9" height="9"/>
	<rect x="90" y="63" class="st0" width="9" height="9"/>
	<rect x="63" y="27" class="st0" width="9" height="63"/>
	<rect x="45" class="st0" width="45" height="9"/>
	<rect x="45" y="126" class="st0" width="45" height="9"/>
	<rect x="108" y="63" transform="matrix(-1.836970e-16 1 -1 -1.836970e-16 198 -63)" class="st0" width="45" height="9"/>
	<rect x="-18" y="63" transform="matrix(-1.836970e-16 1 -1 -1.836970e-16 72 63)" class="st0" width="45" height="9"/>
	<rect x="9" y="27" class="st0" width="9" height="18"/>
	<rect x="27" y="9" class="st0" width="18" height="9"/>
	<rect x="90" y="9" class="st0" width="18" height="9"/>
	<rect x="117" y="27" class="st0" width="9" height="18"/>
	<rect x="90" y="117" class="st0" width="18" height="9"/>
	<rect x="117" y="90" class="st0" width="9" height="18"/>
	<rect x="9" y="90" class="st0" width="9" height="18"/>
	<rect x="27" y="117" class="st0" width="18" height="9"/>
	<rect x="18" y="18" class="st0" width="9" height="9"/>
	<rect x="18" y="108" class="st0" width="9" height="9"/>
	<rect x="108" y="108" class="st0" width="9" height="9"/>
	<rect x="108" y="18" class="st0" width="9" height="9"/>
</g>
</svg>
