<?xml version="1.0" encoding="utf-8"?>
<!-- Generator: Adobe Illustrator 20.1.0, SVG Export Plug-In . SVG Version: 6.00 Build 0)  -->
<!DOCTYPE svg PUBLIC "-//W3C//DTD SVG 1.1//EN" "http://www.w3.org/Graphics/SVG/1.1/DTD/svg11.dtd">
<svg xmlns="http://www.w3.org/2000/svg" xmlns:xlink="http://www.w3.org/1999/xlink" version="1.1" id="Layer_1" x="0px" y="0px" viewBox="0 0 50 50" style="enable-background:new 0 0 50 50;" xml:space="preserve">
<style type="text/css">
	.st0{fill:#FFFFFF;}
</style>
<g>
	<path class="st0" d="M44.5,13.4V9.8h-3.6V6.2H9.1v3.6H5.5v3.6H1.9v14.4h3.6v3.6h3.6V35h3.6v10.8h3.6v-3.6h3.6v-3.6h3.6V35h17.4   v-3.6h3.6v-3.6h3.6V13.4H44.5z M23.5,26h3.6v3.6h-3.6V26z M23.5,23.3V12.5h3.6v10.8H23.5z M30.7,12.5h3.6v10.8h-3.6V12.5z    M16.3,12.5h3.6v10.8h-3.6V12.5z M16.3,26h3.6v3.6h-3.6V26z M34.3,29.6h-3.6V26h3.6V29.6z"/>
</g>
</svg>