<?xml version="1.0" encoding="utf-8"?>
<!-- Generator: Adobe Illustrator 20.1.0, SVG Export Plug-In . SVG Version: 6.00 Build 0)  -->
<!DOCTYPE svg PUBLIC "-//W3C//DTD SVG 1.1//EN" "http://www.w3.org/Graphics/SVG/1.1/DTD/svg11.dtd">
<svg version="1.1" id="Layer_1" xmlns="http://www.w3.org/2000/svg" xmlns:xlink="http://www.w3.org/1999/xlink" x="0px" y="0px"
	 viewBox="0 0 50 50" style="enable-background:new 0 0 50 50;" xml:space="preserve">
<style type="text/css">
	.st0{fill:none;}
	.st1{fill:#FFFFFF;}
	.st2{fill:none;stroke:#FFFFFF;stroke-width:2.4251;stroke-miterlimit:10;}
	.st3{fill:none;stroke:#FFFFFF;stroke-width:2.4251;stroke-linecap:round;stroke-miterlimit:10;}
</style>
<g>
	<polygon class="st0" points="41.2,17.8 41.2,14.2 37.6,14.2 37.6,10.6 34,10.6 30.4,10.6 30.4,14.2 26.8,14.2 26.8,17.8 26.8,21.4 
		26.8,25 26.8,28.6 26.8,32.2 26.8,35.8 30.4,35.8 30.4,32.2 34,32.2 34,28.6 37.6,28.6 37.6,25 41.2,25 41.2,21.4 	"/>
	<polygon class="st1" points="37.6,10.6 37.6,7 30.4,7 30.4,10.6 34,10.6 	"/>
	<rect x="26.8" y="10.6" class="st1" width="3.6" height="3.6"/>
	<rect x="37.6" y="10.6" class="st1" width="3.6" height="3.6"/>
	<polygon class="st1" points="41.2,14.2 41.2,17.8 41.2,21.4 41.2,25 44.8,25 44.8,21.4 44.8,17.8 44.8,14.2 	"/>
	<rect x="34" y="28.6" class="st1" width="3.6" height="3.6"/>
	<rect x="30.4" y="32.2" class="st1" width="3.6" height="3.6"/>
	<rect x="37.6" y="25" class="st1" width="3.6" height="3.6"/>
	<polygon class="st1" points="26.8,32.2 26.8,28.6 26.8,25 26.8,21.4 26.8,17.8 26.8,14.2 23.2,14.2 23.2,10.6 19.6,10.6 19.6,7 
		12.4,7 12.4,10.6 8.8,10.6 8.8,14.2 5.2,14.2 5.2,17.8 5.2,21.4 5.2,25 8.8,25 8.8,28.6 12.4,28.6 12.4,32.2 16,32.2 16,35.8 
		19.6,35.8 19.6,39.4 23.2,39.4 23.2,43 26.8,43 26.8,39.4 30.4,39.4 30.4,35.8 26.8,35.8 	"/>
</g>
</svg>